<svg width="180" height="70" viewBox="0 0 180 70" fill="none" xmlns="http://www.w3.org/2000/svg">
<path d="M5.33 64.39C5.81667 64.49 6.18667 64.6867 6.44 64.98C6.69333 65.2667 6.82 65.6433 6.82 66.11C6.82 66.7167 6.60333 67.1833 6.17 67.51C5.74333 67.8367 5.11333 68 4.28 68H1.18V61H4.09C4.83667 61 5.42 61.1533 5.84 61.46C6.26 61.7667 6.47 62.21 6.47 62.79C6.47 63.1833 6.37 63.5167 6.17 63.79C5.97 64.0567 5.69 64.2567 5.33 64.39ZM1.91 64.17H4.05C4.59 64.17 5.00333 64.06 5.29 63.84C5.58333 63.62 5.73 63.3 5.73 62.88C5.73 62.46 5.58333 62.14 5.29 61.92C5.00333 61.7 4.59 61.59 4.05 61.59H1.91V64.17ZM4.28 67.41C5.48667 67.41 6.09 66.96 6.09 66.06C6.09 65.18 5.48667 64.74 4.28 64.74H1.91V67.41H4.28ZM10.3102 62.7C10.9969 62.7 11.5236 62.8733 11.8902 63.22C12.2569 63.56 12.4402 64.0667 12.4402 64.74V68H11.7602V67.18C11.6002 67.4533 11.3636 67.6667 11.0502 67.82C10.7436 67.9733 10.3769 68.05 9.95023 68.05C9.36357 68.05 8.8969 67.91 8.55023 67.63C8.20357 67.35 8.03023 66.98 8.03023 66.52C8.03023 66.0733 8.19023 65.7133 8.51023 65.44C8.8369 65.1667 9.35357 65.03 10.0602 65.03H11.7302V64.71C11.7302 64.2567 11.6036 63.9133 11.3502 63.68C11.0969 63.44 10.7269 63.32 10.2402 63.32C9.9069 63.32 9.5869 63.3767 9.28023 63.49C8.97357 63.5967 8.71023 63.7467 8.49023 63.94L8.17023 63.41C8.4369 63.1833 8.7569 63.01 9.13023 62.89C9.50357 62.7633 9.8969 62.7 10.3102 62.7ZM10.0602 67.49C10.4602 67.49 10.8036 67.4 11.0902 67.22C11.3769 67.0333 11.5902 66.7667 11.7302 66.42V65.56H10.0802C9.18023 65.56 8.73023 65.8733 8.73023 66.5C8.73023 66.8067 8.8469 67.05 9.08023 67.23C9.31357 67.4033 9.64023 67.49 10.0602 67.49ZM21.5903 62.74V68H14.3303V62.74H15.0403V67.38H17.6203V62.74H18.3303V67.38H20.8803V62.74H21.5903ZM23.6174 62.74H24.3274V66.92L27.8374 62.74H28.4674V68H27.7574V63.82L24.2574 68H23.6174V62.74ZM36.4694 65.28C37.1827 65.4467 37.5394 65.8767 37.5394 66.57C37.5394 67.03 37.3694 67.3833 37.0294 67.63C36.6894 67.8767 36.1827 68 35.5094 68H33.1194V62.74H35.4394C36.0394 62.74 36.5094 62.8567 36.8494 63.09C37.1894 63.3233 37.3594 63.6567 37.3594 64.09C37.3594 64.3767 37.2794 64.6233 37.1194 64.83C36.966 65.03 36.7494 65.18 36.4694 65.28ZM33.8094 65.08H35.3894C35.796 65.08 36.106 65.0033 36.3194 64.85C36.5394 64.6967 36.6494 64.4733 36.6494 64.18C36.6494 63.8867 36.5394 63.6667 36.3194 63.52C36.106 63.3733 35.796 63.3 35.3894 63.3H33.8094V65.08ZM35.4794 67.44C35.9327 67.44 36.2727 67.3667 36.4994 67.22C36.726 67.0733 36.8394 66.8433 36.8394 66.53C36.8394 66.2167 36.736 65.9867 36.5294 65.84C36.3227 65.6867 35.996 65.61 35.5494 65.61H33.8094V67.44H35.4794ZM41.3734 68.05C40.8667 68.05 40.41 67.9367 40.0034 67.71C39.5967 67.4767 39.2767 67.1567 39.0434 66.75C38.81 66.3433 38.6934 65.8833 38.6934 65.37C38.6934 64.8567 38.81 64.3967 39.0434 63.99C39.2767 63.5833 39.5967 63.2667 40.0034 63.04C40.41 62.8133 40.8667 62.7 41.3734 62.7C41.88 62.7 42.3367 62.8133 42.7434 63.04C43.15 63.2667 43.4667 63.5833 43.6934 63.99C43.9267 64.3967 44.0434 64.8567 44.0434 65.37C44.0434 65.8833 43.9267 66.3433 43.6934 66.75C43.4667 67.1567 43.15 67.4767 42.7434 67.71C42.3367 67.9367 41.88 68.05 41.3734 68.05ZM41.3734 67.42C41.7467 67.42 42.08 67.3367 42.3734 67.17C42.6734 66.9967 42.9067 66.7533 43.0734 66.44C43.24 66.1267 43.3234 65.77 43.3234 65.37C43.3234 64.97 43.24 64.6133 43.0734 64.3C42.9067 63.9867 42.6734 63.7467 42.3734 63.58C42.08 63.4067 41.7467 63.32 41.3734 63.32C41 63.32 40.6634 63.4067 40.3634 63.58C40.07 63.7467 39.8367 63.9867 39.6634 64.3C39.4967 64.6133 39.4134 64.97 39.4134 65.37C39.4134 65.77 39.4967 66.1267 39.6634 66.44C39.8367 66.7533 40.07 66.9967 40.3634 67.17C40.6634 67.3367 41 67.42 41.3734 67.42ZM48.0817 65.26C48.4551 65.3467 48.7417 65.4967 48.9417 65.71C49.1484 65.9233 49.2517 66.1833 49.2517 66.49C49.2517 66.7967 49.1451 67.07 48.9317 67.31C48.7251 67.55 48.4417 67.7367 48.0817 67.87C47.7217 67.9967 47.3251 68.06 46.8917 68.06C46.5117 68.06 46.1384 68.0067 45.7717 67.9C45.4051 67.7867 45.0851 67.6233 44.8117 67.41L45.0517 66.88C45.2917 67.06 45.5717 67.2 45.8917 67.3C46.2117 67.4 46.5351 67.45 46.8617 67.45C47.3484 67.45 47.7451 67.36 48.0517 67.18C48.3651 66.9933 48.5217 66.7433 48.5217 66.43C48.5217 66.15 48.3951 65.9333 48.1417 65.78C47.8884 65.62 47.5417 65.54 47.1017 65.54H46.2017V65.02H47.0617C47.4551 65.02 47.7717 64.9467 48.0117 64.8C48.2517 64.6467 48.3717 64.4433 48.3717 64.19C48.3717 63.91 48.2351 63.69 47.9617 63.53C47.6951 63.37 47.3451 63.29 46.9117 63.29C46.3451 63.29 45.7851 63.4333 45.2317 63.72L45.0317 63.17C45.6584 62.8433 46.3084 62.68 46.9817 62.68C47.3817 62.68 47.7417 62.74 48.0617 62.86C48.3884 62.9733 48.6417 63.1367 48.8217 63.35C49.0084 63.5633 49.1017 63.81 49.1017 64.09C49.1017 64.3567 49.0084 64.5933 48.8217 64.8C48.6417 65.0067 48.3951 65.16 48.0817 65.26ZM56.7435 62.74V68H56.0935V63.84L53.9635 67.36H53.6435L51.5135 63.83V68H50.8635V62.74H51.5835L53.8135 66.53L56.0835 62.74H56.7435ZM60.9339 68.05C60.4272 68.05 59.9706 67.9367 59.5639 67.71C59.1572 67.4767 58.8372 67.1567 58.6039 66.75C58.3706 66.3433 58.2539 65.8833 58.2539 65.37C58.2539 64.8567 58.3706 64.3967 58.6039 63.99C58.8372 63.5833 59.1572 63.2667 59.5639 63.04C59.9706 62.8133 60.4272 62.7 60.9339 62.7C61.4406 62.7 61.8972 62.8133 62.3039 63.04C62.7106 63.2667 63.0272 63.5833 63.2539 63.99C63.4872 64.3967 63.6039 64.8567 63.6039 65.37C63.6039 65.8833 63.4872 66.3433 63.2539 66.75C63.0272 67.1567 62.7106 67.4767 62.3039 67.71C61.8972 67.9367 61.4406 68.05 60.9339 68.05ZM60.9339 67.42C61.3072 67.42 61.6406 67.3367 61.9339 67.17C62.2339 66.9967 62.4672 66.7533 62.6339 66.44C62.8006 66.1267 62.8839 65.77 62.8839 65.37C62.8839 64.97 62.8006 64.6133 62.6339 64.3C62.4672 63.9867 62.2339 63.7467 61.9339 63.58C61.6406 63.4067 61.3072 63.32 60.9339 63.32C60.5606 63.32 60.2239 63.4067 59.9239 63.58C59.6306 63.7467 59.3972 63.9867 59.2239 64.3C59.0572 64.6133 58.9739 64.97 58.9739 65.37C58.9739 65.77 59.0572 66.1267 59.2239 66.44C59.3972 66.7533 59.6306 66.9967 59.9239 67.17C60.2239 67.3367 60.5606 67.42 60.9339 67.42ZM69.5458 65.66H68.4058V68H67.6958V65.66H66.5558L64.9458 68H64.0958L65.9858 65.29L64.2458 62.74H65.0158L66.5558 65.05H67.6958V62.74H68.4058V65.05H69.5458L71.0958 62.74H71.8658L70.1258 65.3L72.0158 68H71.1658L69.5458 65.66ZM73.1975 62.74H73.9075V65.07H77.2175V62.74H77.9275V68H77.2175V65.68H73.9075V68H73.1975V62.74ZM82.1155 68.05C81.6089 68.05 81.1522 67.9367 80.7455 67.71C80.3389 67.4767 80.0189 67.1567 79.7855 66.75C79.5522 66.3433 79.4355 65.8833 79.4355 65.37C79.4355 64.8567 79.5522 64.3967 79.7855 63.99C80.0189 63.5833 80.3389 63.2667 80.7455 63.04C81.1522 62.8133 81.6089 62.7 82.1155 62.7C82.6222 62.7 83.0789 62.8133 83.4855 63.04C83.8922 63.2667 84.2089 63.5833 84.4355 63.99C84.6689 64.3967 84.7855 64.8567 84.7855 65.37C84.7855 65.8833 84.6689 66.3433 84.4355 66.75C84.2089 67.1567 83.8922 67.4767 83.4855 67.71C83.0789 67.9367 82.6222 68.05 82.1155 68.05ZM82.1155 67.42C82.4889 67.42 82.8222 67.3367 83.1155 67.17C83.4155 66.9967 83.6489 66.7533 83.8155 66.44C83.9822 66.1267 84.0655 65.77 84.0655 65.37C84.0655 64.97 83.9822 64.6133 83.8155 64.3C83.6489 63.9867 83.4155 63.7467 83.1155 63.58C82.8222 63.4067 82.4889 63.32 82.1155 63.32C81.7422 63.32 81.4055 63.4067 81.1055 63.58C80.8122 63.7467 80.5789 63.9867 80.4055 64.3C80.2389 64.6133 80.1555 64.97 80.1555 65.37C80.1555 65.77 80.2389 66.1267 80.4055 66.44C80.5789 66.7533 80.8122 66.9967 81.1055 67.17C81.4055 67.3367 81.7422 67.42 82.1155 67.42ZM88.503 68.05C87.983 68.05 87.5163 67.9367 87.103 67.71C86.6963 67.4833 86.3763 67.1667 86.143 66.76C85.9096 66.3467 85.793 65.8833 85.793 65.37C85.793 64.8567 85.9096 64.3967 86.143 63.99C86.3763 63.5833 86.6963 63.2667 87.103 63.04C87.5163 62.8133 87.983 62.7 88.503 62.7C88.9563 62.7 89.3596 62.79 89.713 62.97C90.073 63.1433 90.3563 63.4 90.563 63.74L90.033 64.1C89.8596 63.84 89.6396 63.6467 89.373 63.52C89.1063 63.3867 88.8163 63.32 88.503 63.32C88.123 63.32 87.7796 63.4067 87.473 63.58C87.173 63.7467 86.9363 63.9867 86.763 64.3C86.5963 64.6133 86.513 64.97 86.513 65.37C86.513 65.7767 86.5963 66.1367 86.763 66.45C86.9363 66.7567 87.173 66.9967 87.473 67.17C87.7796 67.3367 88.123 67.42 88.503 67.42C88.8163 67.42 89.1063 67.3567 89.373 67.23C89.6396 67.1033 89.8596 66.91 90.033 66.65L90.563 67.01C90.3563 67.35 90.073 67.61 89.713 67.79C89.353 67.9633 88.9496 68.05 88.503 68.05ZM95.5401 63.37H93.5501V68H92.8401V63.37H90.8501V62.74H95.5401V63.37ZM96.5666 62.74H97.2766V66.92L100.787 62.74H101.417V68H100.707V63.82L97.2066 68H96.5666V62.74ZM108.619 62.87C109.105 62.87 109.539 62.98 109.919 63.2C110.305 63.4133 110.605 63.7167 110.819 64.11C111.032 64.4967 111.139 64.94 111.139 65.44C111.139 65.9533 111.025 66.41 110.799 66.81C110.579 67.2033 110.269 67.51 109.869 67.73C109.469 67.95 109.009 68.06 108.489 68.06C107.615 68.06 106.939 67.7533 106.459 67.14C105.979 66.5267 105.739 65.68 105.739 64.6C105.739 63.4733 105.952 62.61 106.379 62.01C106.812 61.41 107.485 61.0033 108.399 60.79L110.759 60.25L110.879 60.9L108.659 61.41C107.905 61.5767 107.352 61.8733 106.999 62.3C106.645 62.72 106.452 63.3433 106.419 64.17C106.632 63.7633 106.929 63.4467 107.309 63.22C107.689 62.9867 108.125 62.87 108.619 62.87ZM108.509 67.47C108.875 67.47 109.202 67.3867 109.489 67.22C109.782 67.0467 110.009 66.8067 110.169 66.5C110.335 66.1933 110.419 65.8467 110.419 65.46C110.419 65.0733 110.339 64.7333 110.179 64.44C110.019 64.1467 109.792 63.92 109.499 63.76C109.212 63.5933 108.882 63.51 108.509 63.51C108.135 63.51 107.802 63.5933 107.509 63.76C107.222 63.92 106.995 64.1467 106.829 64.44C106.669 64.7333 106.589 65.0733 106.589 65.46C106.589 65.8467 106.669 66.1933 106.829 66.5C106.995 66.8067 107.225 67.0467 107.519 67.22C107.812 67.3867 108.142 67.47 108.509 67.47ZM117.26 65.59H112.86C112.9 66.1367 113.11 66.58 113.49 66.92C113.87 67.2533 114.35 67.42 114.93 67.42C115.257 67.42 115.557 67.3633 115.83 67.25C116.104 67.13 116.34 66.9567 116.54 66.73L116.94 67.19C116.707 67.47 116.414 67.6833 116.06 67.83C115.714 67.9767 115.33 68.05 114.91 68.05C114.37 68.05 113.89 67.9367 113.47 67.71C113.057 67.4767 112.734 67.1567 112.5 66.75C112.267 66.3433 112.15 65.8833 112.15 65.37C112.15 64.8567 112.26 64.3967 112.48 63.99C112.707 63.5833 113.014 63.2667 113.4 63.04C113.794 62.8133 114.234 62.7 114.72 62.7C115.207 62.7 115.644 62.8133 116.03 63.04C116.417 63.2667 116.72 63.5833 116.94 63.99C117.16 64.39 117.27 64.85 117.27 65.37L117.26 65.59ZM114.72 63.31C114.214 63.31 113.787 63.4733 113.44 63.8C113.1 64.12 112.907 64.54 112.86 65.06H116.59C116.544 64.54 116.347 64.12 116 63.8C115.66 63.4733 115.234 63.31 114.72 63.31ZM121.256 65.26C121.629 65.3467 121.916 65.4967 122.116 65.71C122.322 65.9233 122.426 66.1833 122.426 66.49C122.426 66.7967 122.319 67.07 122.106 67.31C121.899 67.55 121.616 67.7367 121.256 67.87C120.896 67.9967 120.499 68.06 120.066 68.06C119.686 68.06 119.312 68.0067 118.946 67.9C118.579 67.7867 118.259 67.6233 117.986 67.41L118.226 66.88C118.466 67.06 118.746 67.2 119.066 67.3C119.386 67.4 119.709 67.45 120.036 67.45C120.522 67.45 120.919 67.36 121.226 67.18C121.539 66.9933 121.696 66.7433 121.696 66.43C121.696 66.15 121.569 65.9333 121.316 65.78C121.062 65.62 120.716 65.54 120.276 65.54H119.376V65.02H120.236C120.629 65.02 120.946 64.9467 121.186 64.8C121.426 64.6467 121.546 64.4433 121.546 64.19C121.546 63.91 121.409 63.69 121.136 63.53C120.869 63.37 120.519 63.29 120.086 63.29C119.519 63.29 118.959 63.4333 118.406 63.72L118.206 63.17C118.832 62.8433 119.482 62.68 120.156 62.68C120.556 62.68 120.916 62.74 121.236 62.86C121.562 62.9733 121.816 63.1367 121.996 63.35C122.182 63.5633 122.276 63.81 122.276 64.09C122.276 64.3567 122.182 64.5933 121.996 64.8C121.816 65.0067 121.569 65.16 121.256 65.26ZM130.375 63.37H127.365V68H126.655V62.74H130.375V63.37ZM134.111 62.7C134.604 62.7 135.051 62.8133 135.451 63.04C135.851 63.26 136.164 63.5733 136.391 63.98C136.617 64.3867 136.731 64.85 136.731 65.37C136.731 65.8967 136.617 66.3633 136.391 66.77C136.164 67.1767 135.851 67.4933 135.451 67.72C135.057 67.94 134.611 68.05 134.111 68.05C133.684 68.05 133.297 67.9633 132.951 67.79C132.611 67.61 132.331 67.35 132.111 67.01V69.94H131.401V62.74H132.081V63.78C132.294 63.4333 132.574 63.1667 132.921 62.98C133.274 62.7933 133.671 62.7 134.111 62.7ZM134.061 67.42C134.427 67.42 134.761 67.3367 135.061 67.17C135.361 66.9967 135.594 66.7533 135.761 66.44C135.934 66.1267 136.021 65.77 136.021 65.37C136.021 64.97 135.934 64.6167 135.761 64.31C135.594 63.9967 135.361 63.7533 135.061 63.58C134.761 63.4067 134.427 63.32 134.061 63.32C133.687 63.32 133.351 63.4067 133.051 63.58C132.757 63.7533 132.524 63.9967 132.351 64.31C132.184 64.6167 132.101 64.97 132.101 65.37C132.101 65.77 132.184 66.1267 132.351 66.44C132.524 66.7533 132.757 66.9967 133.051 67.17C133.351 67.3367 133.687 67.42 134.061 67.42ZM140.037 62.7C140.723 62.7 141.25 62.8733 141.617 63.22C141.983 63.56 142.167 64.0667 142.167 64.74V68H141.487V67.18C141.327 67.4533 141.09 67.6667 140.777 67.82C140.47 67.9733 140.103 68.05 139.677 68.05C139.09 68.05 138.623 67.91 138.277 67.63C137.93 67.35 137.757 66.98 137.757 66.52C137.757 66.0733 137.917 65.7133 138.237 65.44C138.563 65.1667 139.08 65.03 139.787 65.03H141.457V64.71C141.457 64.2567 141.33 63.9133 141.077 63.68C140.823 63.44 140.453 63.32 139.967 63.32C139.633 63.32 139.313 63.3767 139.007 63.49C138.7 63.5967 138.437 63.7467 138.217 63.94L137.897 63.41C138.163 63.1833 138.483 63.01 138.857 62.89C139.23 62.7633 139.623 62.7 140.037 62.7ZM139.787 67.49C140.187 67.49 140.53 67.4 140.817 67.22C141.103 67.0333 141.317 66.7667 141.457 66.42V65.56H139.807C138.907 65.56 138.457 65.8733 138.457 66.5C138.457 66.8067 138.573 67.05 138.807 67.23C139.04 67.4033 139.367 67.49 139.787 67.49ZM144.057 62.74H144.767V65.07H148.077V62.74H148.787V68H148.077V65.68H144.767V68H144.057V62.74ZM150.805 62.74H151.515V66.92L155.025 62.74H155.655V68H154.945V63.82L151.445 68H150.805V62.74ZM163.17 67.38V69.32H162.5V68H157.69V62.74H158.4V67.38H161.61V62.74H162.32V67.38H163.17Z" fill="white"/>
<path d="M18.048 17.344C19.936 17.344 21.488 17.616 22.704 18.16C23.92 18.672 25.248 19.44 26.688 20.464C27.104 20.784 27.424 20.944 27.648 20.944C28.256 20.944 28.656 19.968 28.848 18.016H29.952C29.824 20.096 29.76 23.776 29.76 29.056H28.656C28.368 27.36 28.064 25.968 27.744 24.88C27.424 23.76 26.928 22.784 26.256 21.952C25.328 20.8 24.112 19.888 22.608 19.216C21.136 18.544 19.584 18.208 17.952 18.208C15.84 18.208 13.984 18.896 12.384 20.272C10.784 21.648 9.552 23.616 8.688 26.176C7.824 28.704 7.392 31.664 7.392 35.056C7.392 40.816 8.304 45.04 10.128 47.728C11.984 50.384 14.88 51.712 18.816 51.712C20.736 51.712 22.4 51.216 23.808 50.224C24.384 49.84 24.752 49.472 24.912 49.12C25.104 48.736 25.2 48.224 25.2 47.584V42.976C25.2 41.632 25.072 40.656 24.816 40.048C24.56 39.44 24.112 39.024 23.472 38.8C22.832 38.576 21.792 38.432 20.352 38.368V37.408C22.016 37.504 24.272 37.552 27.12 37.552C29.296 37.552 30.96 37.504 32.112 37.408V38.368C31.376 38.432 30.832 38.56 30.48 38.752C30.16 38.944 29.936 39.312 29.808 39.856C29.712 40.4 29.664 41.28 29.664 42.496V52H28.704C28.672 51.36 28.544 50.752 28.32 50.176C28.096 49.568 27.792 49.264 27.408 49.264C27.216 49.264 27.024 49.312 26.832 49.408C26.64 49.504 26.304 49.728 25.824 50.08C24.704 50.944 23.536 51.584 22.32 52C21.136 52.448 19.808 52.672 18.336 52.672C15.04 52.672 12.208 52 9.84 50.656C7.504 49.28 5.712 47.312 4.464 44.752C3.216 42.192 2.592 39.136 2.592 35.584C2.592 31.936 3.248 28.736 4.56 25.984C5.904 23.2 7.744 21.072 10.08 19.6C12.416 18.096 15.072 17.344 18.048 17.344ZM42.5396 47.536C42.5396 48.848 42.8116 49.76 43.3556 50.272C43.8996 50.752 44.8436 50.992 46.1876 50.992V52C43.2436 51.872 41.3076 51.808 40.3796 51.808C39.4516 51.808 37.5156 51.872 34.5716 52V50.992C35.9156 50.992 36.8596 50.752 37.4036 50.272C37.9476 49.76 38.2196 48.848 38.2196 47.536V20.128C38.2196 18.656 37.9476 17.584 37.4036 16.912C36.8596 16.24 35.9156 15.904 34.5716 15.904V14.896C35.5636 14.992 36.5556 15.04 37.5476 15.04C39.5636 15.04 41.2276 14.816 42.5396 14.368V47.536ZM59.9333 26.608C63.1973 26.608 65.8213 27.696 67.8053 29.872C69.8213 32.016 70.8293 35.28 70.8293 39.664C70.8293 44.048 69.8213 47.312 67.8053 49.456C65.8213 51.6 63.1973 52.672 59.9333 52.672C56.6693 52.672 54.0293 51.6 52.0133 49.456C50.0293 47.312 49.0373 44.048 49.0373 39.664C49.0373 35.28 50.0293 32.016 52.0133 29.872C54.0293 27.696 56.6693 26.608 59.9333 26.608ZM59.9333 27.568C58.0133 27.568 56.4933 28.56 55.3733 30.544C54.2533 32.496 53.6933 35.536 53.6933 39.664C53.6933 43.792 54.2533 46.832 55.3733 48.784C56.4933 50.736 58.0133 51.712 59.9333 51.712C61.8533 51.712 63.3733 50.736 64.4933 48.784C65.6133 46.832 66.1733 43.792 66.1733 39.664C66.1733 35.536 65.6133 32.496 64.4933 30.544C63.3733 28.56 61.8533 27.568 59.9333 27.568ZM88.7261 26.608C91.4461 26.608 93.6381 27.728 95.3021 29.968C96.9981 32.208 97.8461 35.44 97.8461 39.664C97.8461 42.448 97.3661 44.816 96.4061 46.768C95.4461 48.72 94.1501 50.192 92.5181 51.184C90.9181 52.176 89.1261 52.672 87.1421 52.672C85.9581 52.672 84.8061 52.432 83.6861 51.952C82.5981 51.472 81.6381 50.784 80.8061 49.888L77.3981 52.768L76.5821 52.432C76.8061 51.632 76.9181 50.704 76.9181 49.648V20.176C76.9181 18.704 76.6461 17.632 76.1021 16.96C75.5581 16.288 74.6141 15.952 73.2701 15.952V14.944C74.2941 15.04 75.2861 15.088 76.2461 15.088C78.2621 15.088 79.9261 14.864 81.2381 14.416V31.744C81.9421 30.112 82.9501 28.848 84.2621 27.952C85.6061 27.056 87.0941 26.608 88.7261 26.608ZM86.7581 51.568C88.9021 51.568 90.5021 50.608 91.5581 48.688C92.6461 46.736 93.1901 43.728 93.1901 39.664C93.1901 35.76 92.7101 32.848 91.7501 30.928C90.7901 29.008 89.3181 28.048 87.3341 28.048C85.9901 28.048 84.7581 28.576 83.6381 29.632C82.5181 30.656 81.7181 32.112 81.2381 34V49.216C81.9741 49.984 82.8221 50.576 83.7821 50.992C84.7421 51.376 85.7341 51.568 86.7581 51.568ZM122.349 46.24C121.773 48 120.685 49.52 119.085 50.8C117.517 52.048 115.613 52.672 113.373 52.672C111.101 52.672 109.133 52.16 107.469 51.136C105.805 50.08 104.525 48.624 103.629 46.768C102.765 44.88 102.333 42.704 102.333 40.24C102.333 37.456 102.781 35.04 103.677 32.992C104.573 30.944 105.837 29.376 107.469 28.288C109.101 27.168 111.005 26.608 113.181 26.608C116.061 26.608 118.269 27.488 119.805 29.248C121.373 30.976 122.157 33.616 122.157 37.168H107.133C107.037 38.064 106.989 39.088 106.989 40.24C106.989 42.352 107.325 44.192 107.997 45.76C108.701 47.328 109.613 48.544 110.733 49.408C111.885 50.24 113.085 50.656 114.333 50.656C115.869 50.656 117.229 50.288 118.413 49.552C119.597 48.816 120.589 47.584 121.389 45.856L122.349 46.24ZM112.989 27.52C111.485 27.52 110.189 28.256 109.101 29.728C108.013 31.2 107.341 33.376 107.085 36.256H117.549C117.613 33.76 117.245 31.68 116.445 30.016C115.677 28.352 114.525 27.52 112.989 27.52ZM137.558 26.608C140.822 26.608 143.446 27.696 145.43 29.872C147.446 32.016 148.454 35.28 148.454 39.664C148.454 44.048 147.446 47.312 145.43 49.456C143.446 51.6 140.822 52.672 137.558 52.672C134.294 52.672 131.654 51.6 129.638 49.456C127.654 47.312 126.662 44.048 126.662 39.664C126.662 35.28 127.654 32.016 129.638 29.872C131.654 27.696 134.294 26.608 137.558 26.608ZM137.558 27.568C135.638 27.568 134.118 28.56 132.998 30.544C131.878 32.496 131.318 35.536 131.318 39.664C131.318 43.792 131.878 46.832 132.998 48.784C134.118 50.736 135.638 51.712 137.558 51.712C139.478 51.712 140.998 50.736 142.118 48.784C143.238 46.832 143.798 43.792 143.798 39.664C143.798 35.536 143.238 32.496 142.118 30.544C140.998 28.56 139.478 27.568 137.558 27.568ZM168.223 26.608C170.463 26.608 172.159 27.216 173.311 28.432C173.919 29.072 174.351 29.872 174.607 30.832C174.863 31.792 174.991 33.088 174.991 34.72V47.536C174.991 48.848 175.263 49.76 175.807 50.272C176.351 50.752 177.295 50.992 178.639 50.992V52C175.695 51.872 173.775 51.808 172.879 51.808C171.983 51.808 170.191 51.872 167.503 52V50.992C168.687 50.992 169.503 50.752 169.951 50.272C170.431 49.76 170.671 48.848 170.671 47.536V33.664C170.671 31.872 170.415 30.512 169.903 29.584C169.391 28.624 168.351 28.144 166.783 28.144C165.471 28.144 164.303 28.528 163.279 29.296C162.255 30.064 161.455 31.12 160.879 32.464C160.335 33.776 160.063 35.248 160.063 36.88V47.536C160.063 48.848 160.287 49.76 160.735 50.272C161.215 50.752 162.047 50.992 163.231 50.992V52C160.543 51.872 158.751 51.808 157.855 51.808C156.959 51.808 155.039 51.872 152.095 52V50.992C153.439 50.992 154.383 50.752 154.927 50.272C155.471 49.76 155.743 48.848 155.743 47.536V32.512C155.743 31.04 155.471 29.968 154.927 29.296C154.383 28.624 153.439 28.288 152.095 28.288V27.28C153.119 27.376 154.111 27.424 155.071 27.424C157.087 27.424 158.751 27.2 160.063 26.752V32.416C160.863 30.368 161.967 28.896 163.375 28C164.815 27.072 166.431 26.608 168.223 26.608Z" fill="url(#paint0_linear_52_26)"/>
<defs>
<linearGradient id="paint0_linear_52_26" x1="0" y1="26.5" x2="180" y2="26.5" gradientUnits="userSpaceOnUse">
<stop stop-color="#BF953F"/>
<stop offset="0.25" stop-color="#FCF6BA"/>
<stop offset="0.5" stop-color="#B38728"/>
<stop offset="0.75" stop-color="#FBF5B7"/>
<stop offset="1" stop-color="#AA771C"/>
</linearGradient>
</defs>
</svg>
