<svg width="71" height="70" viewBox="0 0 71 70" fill="none" xmlns="http://www.w3.org/2000/svg">
<path d="M67.6189 20.1393C65.8402 16.209 63.287 12.6803 60.0452 9.63934C56.8034 6.62705 53.0452 4.2459 48.8566 2.58197C44.5247 0.860656 39.9345 0 35.2009 0C30.4673 0 25.8771 0.860656 21.5451 2.58197C17.3566 4.2459 13.5984 6.59836 10.3566 9.63934C7.11478 12.6803 4.56153 16.209 2.78284 20.1393C0.946777 24.2131 0 28.5738 0 33.0492C0 40.8811 2.9262 48.3975 8.29095 54.3648L5.4221 70L20.6845 63.2008C25.2459 65.1516 30.0943 66.127 35.1722 66.127C39.9058 66.127 44.496 65.2664 48.8279 63.5451C53.0164 61.8811 56.7746 59.5287 60.0164 56.4877C63.2582 53.4467 65.8115 49.918 67.5902 45.9877C69.4263 41.9139 70.373 37.5533 70.373 33.0779C70.4017 28.5738 69.455 24.2418 67.6189 20.1393Z" fill="white"/>
<path d="M49.4879 39.6474C47.9961 38.9015 46.906 38.4425 46.1314 38.1556C45.6437 37.9835 44.4961 37.4671 44.0945 37.7827C42.8322 38.8155 41.4838 41.7417 40.0494 42.2868C36.492 41.5982 33.1929 39.1597 30.6109 36.6638C29.4633 35.5737 27.3404 32.4753 26.8814 31.6433C26.7953 30.7827 28.3444 29.6351 28.6887 28.9753C30.4674 26.9671 29.1191 25.7048 28.8896 24.8728C28.4879 24.0122 27.7994 22.463 27.197 21.2007C26.6806 20.3687 26.5657 19.1351 25.6477 18.6761C21.746 16.6679 19.5085 20.6843 18.5904 22.7786C13.0535 36.1187 46.3322 61.5081 53.1027 44.0081C53.4469 42.4876 53.3034 41.9138 52.7871 41.2253C51.7543 40.5081 50.5494 40.1925 49.4879 39.6474Z" fill="black"/>
</svg>
