<svg width="32" height="32" viewBox="0 0 32 32" fill="none" xmlns="http://www.w3.org/2000/svg">
<g clip-path="url(#clip0_95_29)">
<path d="M26.6667 0H5.33333C2.38781 0 0 2.38781 0 5.33333V26.6667C0 29.6122 2.38781 32 5.33333 32H26.6667C29.6122 32 32 29.6122 32 26.6667V5.33333C32 2.38781 29.6122 0 26.6667 0Z" fill="black"/>
<path d="M11.5726 10.4334C12.2439 10.4334 12.7957 10.5301 13.2281 10.7235C13.6604 10.9056 14.1326 11.1787 14.6446 11.5427C14.7925 11.6565 14.9063 11.7134 14.986 11.7134C15.2021 11.7134 15.3444 11.3664 15.4126 10.6723H15.8052C15.7596 11.4119 15.7369 12.7203 15.7369 14.5977H15.3444C15.242 13.9947 15.1339 13.4997 15.0201 13.1129C14.9063 12.7147 14.73 12.3676 14.491 12.0718C14.1611 11.6622 13.7287 11.3379 13.194 11.099C12.6706 10.8601 12.1188 10.7406 11.5385 10.7406C10.7876 10.7406 10.1276 10.9852 9.55876 11.4745C8.98987 11.9637 8.55182 12.6635 8.24462 13.5737C7.93742 14.4725 7.78382 15.525 7.78382 16.731C7.78382 18.779 8.10809 20.2809 8.75662 21.2366C9.41653 22.181 10.4462 22.6532 11.8457 22.6532C12.5284 22.6532 13.12 22.4768 13.6206 22.1241C13.8254 21.9875 13.9563 21.8567 14.0132 21.7315C14.0814 21.595 14.1156 21.413 14.1156 21.1854V19.547C14.1156 19.0691 14.07 18.7221 13.979 18.5059C13.888 18.2898 13.7287 18.1419 13.5012 18.0622C13.2736 17.9826 12.9038 17.9314 12.3918 17.9086V17.5673C12.9835 17.6014 13.7856 17.6185 14.7982 17.6185C15.5719 17.6185 16.1636 17.6014 16.5732 17.5673V17.9086C16.3115 17.9314 16.118 17.9769 15.9929 18.0451C15.8791 18.1134 15.7995 18.2443 15.754 18.4377C15.7198 18.6311 15.7028 18.944 15.7028 19.3763V22.7555H15.3614C15.35 22.528 15.3045 22.3118 15.2249 22.107C15.1452 21.8908 15.0372 21.7827 14.9006 21.7827C14.8324 21.7827 14.7641 21.7998 14.6958 21.8339C14.6276 21.8681 14.5081 21.9477 14.3374 22.0729C13.9392 22.3801 13.5239 22.6076 13.0916 22.7555C12.6706 22.9148 12.1984 22.9945 11.675 22.9945C10.5031 22.9945 9.49618 22.7555 8.65422 22.2777C7.82365 21.7884 7.18649 21.0887 6.74276 20.1785C6.29902 19.2683 6.07716 18.1817 6.07716 16.9187C6.07716 15.6217 6.3104 14.4839 6.77689 13.5054C7.25476 12.5155 7.90898 11.7589 8.73956 11.2355C9.57013 10.7008 10.5145 10.4334 11.5726 10.4334ZM22.7193 13.7273C23.6864 13.7273 24.4658 14.1255 25.0574 14.9219C25.6604 15.7184 25.962 16.8675 25.962 18.3694C25.962 19.3593 25.7913 20.2012 25.45 20.8953C25.1086 21.5893 24.6478 22.1127 24.0676 22.4654C23.4987 22.8181 22.8615 22.9945 22.1561 22.9945C21.7351 22.9945 21.3255 22.9091 20.9273 22.7385C20.5404 22.5678 20.1991 22.3232 19.9033 22.0046L18.6916 23.0286L18.4014 22.9091C18.4811 22.6247 18.5209 22.2947 18.5209 21.9193V11.4403C18.5209 10.917 18.4242 10.5358 18.2308 10.2969C18.0373 10.0579 17.7017 9.93848 17.2238 9.93848V9.58008C17.5879 9.61422 17.9406 9.63128 18.282 9.63128C18.9988 9.63128 19.5904 9.55164 20.0569 9.39235V15.5534C20.3072 14.9731 20.6656 14.5237 21.1321 14.2051C21.61 13.8866 22.139 13.7273 22.7193 13.7273ZM22.0196 22.6019C22.7819 22.6019 23.3508 22.2606 23.7262 21.5779C24.1131 20.8839 24.3065 19.8144 24.3065 18.3694C24.3065 16.9813 24.1358 15.9459 23.7945 15.2633C23.4532 14.5806 22.9298 14.2393 22.2244 14.2393C21.7465 14.2393 21.3084 14.427 20.9102 14.8025C20.512 15.1666 20.2276 15.6843 20.0569 16.3555V21.7657C20.3186 22.0387 20.6201 22.2492 20.9614 22.3971C21.3028 22.5337 21.6555 22.6019 22.0196 22.6019Z" fill="url(#paint0_linear_95_29)"/>
</g>
<defs>
<linearGradient id="paint0_linear_95_29" x1="5.15556" y1="13.5111" x2="26.8444" y2="13.5111" gradientUnits="userSpaceOnUse">
<stop stop-color="#BF953F"/>
<stop offset="0.25" stop-color="#FCF6BA"/>
<stop offset="0.5" stop-color="#B38728"/>
<stop offset="0.75" stop-color="#FBF5B7"/>
<stop offset="1" stop-color="#AA771C"/>
</linearGradient>
<clipPath id="clip0_95_29">
<rect width="32" height="32" fill="white"/>
</clipPath>
</defs>
</svg>
